# xmcd CD database file
#
# Track frame offsets:
#	150
#	30398
#	50413
#	78620
#	99285
#	122775
#	151428
#	161968
#	184660
#	207440
#
# Disc length: 3109 seconds
#
# Revision: 7
# Processed by: cddbd v1.5PL3 Copyright (c) Steve Scherf et al.
# Submitted via: CDex 1.50
#
DISCID=800c230a
DTITLE=彩風 - 琉球 -BEGIN SONGS-
DYEAR=2003
DGENRE=Japanese Pop
TTITLE0=涙そうそう
TTITLE1=Interlude 霧下りアヨー 〜八重山古謡〜
TTITLE2=イラヨイ月夜浜
TTITLE3=風よ (Instrumental)
TTITLE4=かりゆしの夜 (Instrumental)
TTITLE5=島人ぬ宝 (Instrumental)
TTITLE6=Interlude 雨まーや降い給んな 〜八重山わらべ唄〜 (Instrumental)
TTITLE7=くにぶん木の花
TTITLE8=イラヨイ月夜浜 (Instrumental)
TTITLE9=昔美しゃ今美しゃ
EXTD=YEAR: 2003
EXTT0=
EXTT1=
EXTT2=
EXTT3=
EXTT4=
EXTT5=
EXTT6=
EXTT7=
EXTT8=
EXTT9=
PLAYORDER=
